<?xml version="1.0" standalone="no"?>
<!DOCTYPE svg PUBLIC "-//W3C//DTD SVG 20010904//EN"
 "http://www.w3.org/TR/2001/REC-SVG-20010904/DTD/svg10.dtd">
<svg version="1.0" xmlns="http://www.w3.org/2000/svg"
 width="261.000000pt" height="261.000000pt" viewBox="0 0 261.000000 261.000000"
 preserveAspectRatio="xMidYMid meet">
<metadata>
Created by potrace 1.14, written by Peter Selinger 2001-2017
</metadata>
<g transform="translate(0.000000,261.000000) scale(0.100000,-0.100000)"
fill="#000000" stroke="none">
<path d="M604 2295 c-213 -48 -346 -257 -297 -468 24 -104 87 -195 168 -243
l43 -25 0 -172 c-1 -162 -1 -170 -15 -130 -63 184 -332 192 -410 13 -30 -69
-19 -174 23 -221 14 -15 13 -20 -11 -54 -28 -42 -27 -39 -29 -148 -3 -107 6
-116 119 -115 47 1 88 -2 92 -6 4 -4 8 -72 8 -151 1 -157 7 -175 56 -175 49 0
57 27 55 183 0 77 3 141 8 144 7 5 705 8 761 4 6 -1 10 -58 10 -150 1 -163 6
-181 56 -181 49 0 57 27 55 187 l-1 141 48 4 c27 2 52 1 56 -2 5 -3 8 -49 9
-104 1 -127 24 -176 99 -215 85 -43 213 22 228 116 8 46 31 120 92 299 l45
134 197 0 197 0 37 107 c21 58 35 108 32 111 -3 3 -91 5 -195 6 -168 0 -190 2
-185 15 3 9 24 75 48 146 l44 130 216 3 215 2 36 108 c20 59 36 109 36 112 0
10 -689 5 -698 -5 -5 -6 -41 -107 -81 -225 -40 -118 -82 -241 -93 -272 l-21
-58 -19 25 c-30 38 -102 84 -166 106 -31 11 -58 19 -59 19 -2 0 -129 0 -283 0
l-280 0 0 134 0 134 44 26 c131 77 202 247 172 412 -38 201 -260 345 -462 299z
m204 -134 c205 -104 202 -396 -5 -497 -75 -37 -161 -37 -236 0 -229 112 -202
437 43 517 44 15 152 4 198 -20z m-68 -790 c0 -130 3 -157 17 -173 15 -17 38
-18 318 -18 336 0 371 -5 447 -63 24 -18 54 -52 66 -75 l24 -42 -43 -125 c-24
-68 -45 -123 -47 -121 -2 2 -4 45 -4 95 0 116 -19 158 -86 193 l-47 26 -320 0
c-176 0 -339 1 -362 1 -72 2 -73 4 -73 244 l0 212 55 0 55 0 0 -154z m-390
-98 c70 -41 73 -131 6 -185 -42 -35 -128 -15 -155 35 -29 53 -8 126 42 151 41
20 72 20 107 -1z m172 -173 c4 -24 1 -30 -13 -30 -15 0 -16 4 -6 30 6 17 12
30 13 30 1 0 4 -13 6 -30z m868 -168 c10 -12 18 -36 17 -55 l-2 -32 -607 -1
c-335 0 -608 2 -609 5 0 4 -2 14 -4 25 -5 28 12 66 35 74 11 4 275 8 586 7
l566 0 18 -23z"/>
<path d="M646 1952 c-35 -39 -9 -92 44 -92 31 0 50 23 50 58 0 41 -66 64 -94
34z"/>
</g>
</svg>
